<svg width="40" height="40" viewBox="0 0 40 40" fill="none" xmlns="http://www.w3.org/2000/svg">
<path d="M28.6838 32.8107C28.0733 32.8279 27.4936 33.0827 27.0681 33.521C26.6427 33.9592 26.4051 34.5462 26.406 35.157C26.4059 35.4648 26.4664 35.7697 26.5842 36.0542C26.7019 36.3387 26.8745 36.597 27.0922 36.8147C27.3098 37.0325 27.5682 37.2053 27.8527 37.3231C28.1371 37.441 28.4419 37.5016 28.7498 37.5016C29.0576 37.5016 29.3625 37.441 29.6469 37.3231C29.9313 37.2053 30.1897 37.0325 30.4073 36.8147C30.625 36.597 30.7976 36.3387 30.9153 36.0542C31.0331 35.7697 31.0936 35.4648 31.0935 35.157C31.094 34.8433 31.0315 34.5329 30.9097 34.2439C30.788 33.9549 30.6095 33.6932 30.3848 33.4744C30.1601 33.2556 29.8938 33.084 29.6016 32.9701C29.3094 32.8561 28.9973 32.8019 28.6838 32.8107ZM28.718 34.0632C28.8643 34.059 29.0099 34.0841 29.1463 34.1372C29.2827 34.1903 29.407 34.2702 29.512 34.3722C29.6169 34.4742 29.7004 34.5961 29.7573 34.7309C29.8142 34.8657 29.8435 35.0106 29.8435 35.157C29.8438 35.3008 29.8157 35.4433 29.7609 35.5762C29.706 35.7092 29.6255 35.8301 29.5239 35.9319C29.4223 36.0337 29.3017 36.1144 29.1688 36.1695C29.036 36.2247 28.8936 36.253 28.7497 36.253C28.6059 36.253 28.4635 36.2247 28.3306 36.1695C28.1978 36.1144 28.0771 36.0337 27.9755 35.9319C27.8739 35.8301 27.7934 35.7092 27.7386 35.5762C27.6838 35.4433 27.6557 35.3008 27.656 35.157C27.6559 34.8723 27.7667 34.5988 27.965 34.3946C28.1633 34.1903 28.4335 34.0715 28.718 34.0632Z" fill="#2F80ED"/>
<path d="M11.1814 32.8133C10.5717 32.831 9.99299 33.0859 9.56813 33.5235C9.14327 33.9611 8.90574 34.5471 8.90601 35.157C8.90684 35.7781 9.15414 36.3735 9.59359 36.8124C10.033 37.2512 10.6287 37.4976 11.2498 37.4976C11.8708 37.4976 12.4665 37.2512 12.9059 36.8124C13.3454 36.3735 13.5927 35.7781 13.5935 35.157C13.5936 34.8434 13.5308 34.533 13.4088 34.2441C13.2868 33.9552 13.108 33.6937 12.8831 33.4752C12.6581 33.2566 12.3916 33.0854 12.0993 32.9717C11.807 32.858 11.4949 32.8041 11.1814 32.8133ZM11.2204 34.0608C11.3667 34.0569 11.5123 34.0823 11.6485 34.1357C11.7848 34.189 11.909 34.2693 12.0137 34.3715C12.1184 34.4738 12.2015 34.5959 12.2582 34.7308C12.3148 34.8658 12.3438 35.0107 12.3434 35.157C12.3435 35.3007 12.3153 35.443 12.2603 35.5757C12.2054 35.7085 12.1248 35.8292 12.0233 35.9308C11.9217 36.0325 11.8011 36.113 11.6684 36.168C11.5356 36.223 11.3934 36.2514 11.2497 36.2514C11.106 36.2514 10.9637 36.223 10.831 36.168C10.6982 36.113 10.5776 36.0325 10.4761 35.9308C10.3745 35.8292 10.294 35.7085 10.239 35.5757C10.1841 35.443 10.1558 35.3007 10.1559 35.157C10.1552 34.8715 10.2661 34.597 10.465 34.3922C10.6639 34.1873 10.935 34.0685 11.2204 34.0608Z" fill="#2F80ED"/>
<path d="M30.259 20.0021C29.9572 19.7073 29.6302 19.4394 29.2817 19.2016L29.5592 16.5623L30.8023 16.6926L30.4353 20.1845C30.3783 20.1218 30.3195 20.0609 30.259 20.0017L30.259 20.0021Z" fill="#2F80ED"/>
<path d="M9.56451 20.1847L9.19751 16.6928L10.4407 16.5625L10.7181 19.2018C10.3696 19.4397 10.0426 19.7075 9.74086 20.0023C9.68032 20.0616 9.6215 20.1225 9.5645 20.1851L9.56451 20.1847Z" fill="#2F80ED"/>
<path d="M14.907 19.1929C14.1144 19.1784 13.3268 19.3216 12.59 19.6142C11.8532 19.9067 11.1819 20.3427 10.615 20.8969C10.1713 21.331 9.86686 21.8875 9.74061 22.4953C9.61436 23.1031 9.67198 23.7346 9.90614 24.3095C10.1403 24.8844 10.5404 25.3766 11.0553 25.7232C11.5703 26.0698 12.1769 26.2553 12.7976 26.2558H17.4998V28.4922C15.5139 29.0223 13.7482 30.1706 12.4583 31.771C12.8599 31.9147 13.2328 32.1288 13.5593 32.4033C14.3509 31.4667 15.3372 30.714 16.4496 30.1977C17.5619 29.6814 18.7735 29.4139 19.9998 29.4139C21.2261 29.4139 22.4376 29.6814 23.55 30.1977C24.6623 30.714 25.6486 31.4667 26.4402 32.4033C26.7668 32.1288 27.1396 31.9147 27.5413 31.771C26.2514 30.1706 24.4857 29.0223 22.4998 28.4922V26.2558H27.2019C27.8227 26.2553 28.4292 26.0698 28.9442 25.7232C29.4592 25.3766 29.8593 24.8844 30.0934 24.3095C30.3276 23.7346 30.3852 23.1031 30.259 22.4953C30.1327 21.8875 29.8283 21.331 29.3845 20.8969C28.6007 20.1308 27.6215 19.5947 26.5538 19.3472C25.4861 19.0996 24.3708 19.1501 23.3299 19.4931C21.1672 20.2069 18.8324 20.2069 16.6697 19.4931C16.1005 19.3052 15.5063 19.2039 14.907 19.1926V19.1929ZM14.885 20.4428C15.359 20.4522 15.8289 20.5328 16.279 20.6818C18.6954 21.4791 21.304 21.4791 23.7204 20.6818C24.5441 20.4097 25.4268 20.3691 26.272 20.5646C27.1171 20.7601 27.8924 21.1841 28.5129 21.7903C28.7793 22.0508 28.962 22.3848 29.0377 22.7496C29.1134 23.1145 29.0787 23.4935 28.938 23.8385C28.7974 24.1835 28.5571 24.4788 28.2478 24.6867C27.9386 24.8946 27.5745 25.0056 27.2019 25.0056H12.7976C12.4252 25.0051 12.0614 24.8937 11.7526 24.6857C11.4437 24.4776 11.2038 24.1824 11.0634 23.8375C10.9231 23.4926 10.8886 23.1135 10.9644 22.7489C11.0402 22.3843 11.2228 22.0507 11.489 21.7903C11.9376 21.3519 12.4688 21.0069 13.0517 20.7755C13.6347 20.5442 14.2579 20.4311 14.885 20.4426L14.885 20.4428ZM18.7497 26.2558H21.2497V28.243C20.4199 28.135 19.5796 28.135 18.7497 28.243V26.2558Z" fill="#2F80ED"/>
<path d="M26.8898 3.92003C28.0262 4.40685 28.9419 5.2974 29.4603 6.41981C29.9786 7.54222 30.0627 8.81684 29.6963 9.99762L27.1488 18.2089C26.744 18.096 26.3301 18.0185 25.9118 17.9774L28.5025 9.62737C28.7772 8.74178 28.7142 7.78586 28.3254 6.94404C27.9367 6.10223 27.2499 5.43425 26.3975 5.06914C24.3759 4.20308 22.1994 3.75653 20 3.75653C17.8006 3.75653 15.6241 4.20308 13.6025 5.06914C12.7501 5.43425 12.0633 6.10223 11.6746 6.94404C11.2858 7.78586 11.2228 8.74178 11.4975 9.62737L14.0882 17.9774C13.6699 18.0185 13.256 18.096 12.8512 18.2089L10.3037 9.99762C9.93732 8.81684 10.0214 7.54222 10.5397 6.41981C11.0581 5.2974 11.9738 4.40685 13.1102 3.92003C15.2875 2.98734 17.6314 2.50635 20 2.50635C22.3686 2.50635 24.7125 2.98734 26.8898 3.92003Z" fill="#2F80ED"/>
</svg>
