<svg width="40" height="40" viewBox="0 0 40 40" fill="none" xmlns="http://www.w3.org/2000/svg">
<path d="M0 4C0 1.79086 1.79086 0 4 0H36C38.2091 0 40 1.79086 40 4V36C40 38.2091 38.2091 40 36 40H4C1.79086 40 0 38.2091 0 36V4Z" fill="#2F80ED"/>
<path d="M23.8417 28.9925C22.2849 28.9925 20.8217 28.3865 19.7209 27.2857L12.5105 20.0753C11.4097 18.9749 10.8037 17.5113 10.8037 15.9549C10.8037 14.3985 11.4097 12.9349 12.5105 11.8345C13.2037 11.1413 13.8821 10.8041 14.5849 10.8041C15.8189 10.8041 16.7957 11.8313 17.9273 13.0209C18.1777 13.2845 18.4385 13.5585 18.7137 13.8337C18.7605 13.8805 19.1721 14.3149 19.1721 15.1065C19.1721 15.8977 18.5069 16.5861 18.4305 16.6621C17.7389 17.3537 17.5877 18.4261 18.0585 19.2793C18.3249 19.6097 20.3117 21.5597 20.6721 21.8161C20.9541 21.9433 21.2669 22.0105 21.5785 22.0105C22.1665 22.0105 22.7189 21.7817 23.1345 21.3661C23.2101 21.2905 23.8985 20.6245 24.6901 20.6245C25.4817 20.6245 25.9157 21.0361 25.9629 21.0829C26.2381 21.3581 26.5121 21.6185 26.7753 21.8689C27.9565 22.9929 28.9769 23.9629 28.9921 25.1849C29.0009 25.8969 28.6645 26.5845 27.9625 27.2861C26.8617 28.3869 25.3985 28.9925 23.8417 28.9925ZM14.5849 12.0041C14.2165 12.0041 13.8157 12.2261 13.3593 12.6825C12.4853 13.5565 12.0041 14.7185 12.0041 15.9545C12.0041 17.1905 12.4853 18.3525 13.3593 19.2265L20.5697 26.4373C21.4437 27.3113 22.6057 27.7925 23.8421 27.7925C25.0785 27.7925 26.2405 27.3113 27.1145 26.4373C27.5753 25.9765 27.7973 25.5713 27.7925 25.1997C27.7837 24.4833 26.9333 23.6749 25.9489 22.7381C25.6785 22.4809 25.3969 22.2133 25.1149 21.9309C25.1153 21.9317 25.1157 21.9317 25.1153 21.9317C25.1129 21.9317 24.9697 21.8237 24.6905 21.8237C24.4789 21.8237 24.1425 22.0573 23.9821 22.2153C23.3413 22.8561 22.4877 23.2097 21.5793 23.2097C21.0837 23.2097 20.5857 23.0993 20.1381 22.8901C19.6889 22.6801 17.1881 20.1741 17.0301 19.8969C16.2753 18.5717 16.5029 16.8921 17.5825 15.8125C17.7389 15.6537 17.9725 15.3173 17.9725 15.1053C17.9725 14.8137 17.8545 14.6705 17.8497 14.6645C17.5829 14.3989 17.3153 14.1173 17.0581 13.8473C16.1169 12.8585 15.3041 12.0041 14.5849 12.0041Z" fill="white"/>
</svg>
