<svg width="40" height="40" viewBox="0 0 40 40" fill="none" xmlns="http://www.w3.org/2000/svg">
<path d="M7.55208 4.99854C6.1535 4.99854 5 6.15195 5 7.55062V32.4497C5 33.8484 6.1535 34.9985 7.55208 34.9985H32.4479C33.8465 34.9985 35 33.8484 35 32.4497V7.55062C35 6.15195 33.8465 4.99854 32.4479 4.99854H7.55208ZM7.55208 6.66846H32.4479C32.9519 6.66846 33.3333 7.04645 33.3333 7.55062V32.4497C33.3333 32.9539 32.9519 33.3319 32.4479 33.3319H7.55208C7.04806 33.3319 6.66667 32.9539 6.66667 32.4497V7.55062C6.66667 7.04645 7.04806 6.66846 7.55208 6.66846Z" fill="#2F80ED"/>
<path d="M19.1666 9.99854C18.9456 9.99856 18.7336 10.0864 18.5774 10.2427C18.4211 10.399 18.3333 10.6109 18.3333 10.8319V15.8319C18.3333 16.0529 18.4211 16.2648 18.5774 16.4211C18.7336 16.5773 18.9456 16.6652 19.1666 16.6652H29.1666C29.3876 16.6652 29.5995 16.5773 29.7558 16.4211C29.9121 16.2648 29.9999 16.0529 29.9999 15.8319V10.8319C29.9999 10.6109 29.9121 10.399 29.7558 10.2427C29.5995 10.0864 29.3876 9.99856 29.1666 9.99854H19.1666ZM19.9999 11.6652H28.3333V14.9985H19.9999V11.6652Z" fill="#2F80ED"/>
<path d="M19.1666 18.3318C18.9456 18.3318 18.7336 18.4197 18.5774 18.5759C18.4211 18.7322 18.3333 18.9441 18.3333 19.1651V24.1651C18.3333 24.3861 18.4211 24.598 18.5774 24.7543C18.7336 24.9106 18.9456 24.9984 19.1666 24.9985H29.1666C29.3876 24.9984 29.5995 24.9106 29.7558 24.7543C29.9121 24.598 29.9999 24.3861 29.9999 24.1651V19.1651C29.9999 18.9441 29.9121 18.7322 29.7558 18.5759C29.5995 18.4197 29.3876 18.3318 29.1666 18.3318H19.1666ZM19.9999 19.9985H28.3333V23.3318H19.9999V19.9985Z" fill="#2F80ED"/>
<path fill-rule="evenodd" clip-rule="evenodd" d="M10 11.665V13.3317H15V11.665H10Z" fill="#2F80ED"/>
<path fill-rule="evenodd" clip-rule="evenodd" d="M10 19.9985V21.6652H15V19.9985H10Z" fill="#2F80ED"/>
<path fill-rule="evenodd" clip-rule="evenodd" d="M10 28.3318V29.9985H29.8307V28.3318H10Z" fill="#2F80ED"/>
</svg>
